<svg class="icon" viewBox="0 0 1024 1024" version="1.1"
     xmlns="http://www.w3.org/2000/svg" p-id="7146" width="16" height="16">
  <path
    d="M670.122667 337.621333c2.304-13.994667-9.472-25.6-23.722667-25.6-14.293333 0-25.557333 11.690667-28.928 25.472a107.733333 107.733333 0 0 1-63.914667 74.24 109.098667 109.098667 0 0 1-118.314666-23.381333 107.904 107.904 0 0 1-28.714667-50.858667c-3.413333-13.781333-14.634667-25.429333-28.928-25.429333-14.250667 0-26.026667 11.562667-23.765333 25.6a158.592 158.592 0 0 0 44.885333 87.04A160.298667 160.298667 0 0 0 512 471.381333a160.981333 160.981333 0 0 0 113.28-46.677333 159.232 159.232 0 0 0 44.842667-87.04zM339.242667 641.578667l-61.013334 148.736c-1.92 4.437333-2.133333 8.106667-0.554666 10.965333 1.365333 2.688 4.352 4.053333 9.002666 4.053333h15.104c5.034667 0 8.704-0.981333 11.050667-2.901333a23.594667 23.594667 0 0 0 6.656-10.069333l13.952-33.834667c1.152-3.242667 3.413333-4.906667 6.698667-4.906667h75.221333c3.114667 0 4.736 1.664 4.949333 4.949334l1.706667 33.749333c0.213333 4.821333 1.109333 8.192 2.645333 10.112 1.706667 1.962667 5.12 2.901333 10.154667 2.901333h14.805333c9.301333 0 13.653333-4.906667 13.098667-14.72l-9.002667-146.730666c-0.981333-13.866667-4.48-23.893333-10.453333-30.037334-6.016-6.144-15.616-9.216-28.757333-9.216h-26.752c-12.373333 0-22.186667 2.773333-29.312 8.362667-7.168 5.376-13.568 14.933333-19.2 28.586667z m79.317333 70.741333c0 3.498667-1.664 5.205333-4.949333 5.205333H354.346667c-3.456 0-4.522667-1.706667-3.2-5.205333l20.650666-53.973333c2.688-7.125333 5.546667-11.861333 8.405334-14.165334 2.901333-2.304 7.381333-3.456 13.354666-3.456h7.253334c6.016 0 10.112 1.152 12.245333 3.413334 2.304 2.346667 3.541333 7.082667 3.754667 14.208l1.706666 53.973333zM485.290667 801.578667c-1.962667-2.517333-2.56-5.674667-1.749334-9.514667l31.061334-174.165333c1.578667-7.893333 6.229333-11.861333 13.952-11.861334h67.114666c30.762667 0 51.797333 5.290667 63.018667 15.914667 11.434667 10.581333 14.634667 29.738667 9.6 57.472l-0.853333 5.461333c-4.693333 26.410667-13.994667 44.202667-27.904 53.461334-13.952 9.045333-36.266667 13.568-66.816 13.568h-36.010667c-3.498667 0-5.632 1.706667-6.4 5.205333l-6.4 36.693333c-1.152 7.68-5.802667 11.52-13.952 11.52h-15.957333c-3.84 0-6.784-1.28-8.704-3.754666z m64.469333-154.24l-11.306667 63.573333c-0.597333 3.242667 0.853333 4.906667 4.352 4.906667h33.408c18.176 0 30.592-2.346667 37.12-6.954667 6.613333-4.608 11.178667-14.250667 13.653334-28.885333l0.341333-1.706667c2.517333-14.848 1.322667-24.576-3.498667-29.184-4.864-4.608-16.256-6.912-34.261333-6.912h-33.706667c-3.498667 0-5.546667 1.706667-6.101333 5.162667zM685.44 805.333333h16.554667c7.594667 0 12.330667-3.84 14.250666-11.52l30.805334-174.506666c0.768-3.84 0.085333-6.997333-2.048-9.514667-1.92-2.474667-4.821333-3.754667-8.704-3.754667h-16.256c-8.149333 0-12.8 3.968-13.952 11.861334l-31.104 174.165333c-0.768 3.84-0.170667 6.997333 1.749333 9.514667 1.962667 2.517333 4.864 3.754667 8.704 3.754666z"
    fill="#585858" p-id="7147"></path>
  <path
    d="M327.850667 175.786667H228.693333c-38.570667 1.706667-70.357333 31.573333-73.984 70.4l-61.013333 646.528a90.752 90.752 0 0 0 90.325333 99.285333h655.957334a90.752 90.752 0 0 0 90.368-99.285333L869.333333 246.186667a77.781333 77.781333 0 0 0-74.026666-70.4h-99.157334a187.477333 187.477333 0 0 0-50.133333-88.576A189.653333 189.653333 0 0 0 512 32a190.506667 190.506667 0 0 0-134.016 55.210667A188.373333 188.373333 0 0 0 327.850667 175.786667z m63.872 0a127.274667 127.274667 0 0 1 29.44-45.610667A128.426667 128.426667 0 0 1 512 92.8a129.024 129.024 0 0 1 90.794667 37.376 127.573333 127.573333 0 0 1 29.482666 45.653333H391.722667zM220.544 235.776h580.949333c6.698667 0 12.288 5.077333 12.928 11.733333l61.013334 659.669334a25.941333 25.941333 0 0 1-25.813334 28.373333H172.416a25.941333 25.941333 0 0 1-25.813333-28.373333l61.013333-659.669334a12.970667 12.970667 0 0 1 12.928-11.733333z"
    fill="#585858" p-id="7148"></path>
</svg>
