<?xml version="1.0" standalone="no"?>
<svg class="icon" viewBox="0 0 1030 1024" version="1.1"
     xmlns="http://www.w3.org/2000/svg" p-id="5195" xmlns:xlink="http://www.w3.org/1999/xlink"
     width="16" height="16">
  <path
    d="M1017.6 307.2v-64H960v-57.6c0-57.6-44.8-102.4-102.4-102.4h-83.2V6.4h-64v83.2H544V6.4h-64v83.2H307.2V6.4h-64v83.2H166.4c-57.6 0-102.4 44.8-102.4 96v57.6H0v64h64v172.8H0v64h64v172.8H0v64h64v57.6c0 57.6 44.8 102.4 102.4 102.4h83.2V1024h64v-83.2h172.8V1024h64v-83.2h172.8V1024h64v-83.2h83.2c57.6 0 102.4-44.8 102.4-102.4v-57.6h57.6v-64H960V544h57.6v-64H960V307.2h57.6zM896 838.4c0 19.2-19.2 38.4-38.4 38.4H166.4c-19.2 0-38.4-19.2-38.4-38.4V185.6c0-19.2 19.2-38.4 38.4-38.4h697.6c19.2 0 38.4 19.2 38.4 38.4v652.8zM281.6 352L179.2 640h64l19.2-57.6h108.8l12.8 57.6h64L352 352H281.6z m-6.4 179.2l38.4-115.2 38.4 115.2H275.2z m345.6-179.2H486.4V640h57.6V537.6h70.4c32 0 57.6-12.8 76.8-38.4 12.8-19.2 19.2-38.4 19.2-57.6 0-25.6-6.4-51.2-25.6-70.4-12.8-12.8-38.4-19.2-64-19.2z m25.6 115.2c-6.4 12.8-19.2 19.2-38.4 19.2h-57.6V403.2h44.8c19.2 0 32 0 38.4 6.4 6.4 6.4 12.8 19.2 12.8 32 6.4 12.8 0 19.2 0 25.6z m102.4 172.8h57.6V352h-57.6V640z"
    p-id="5196"></path>
</svg>
