<svg class="icon" viewBox="0 0 1024 1024" version="1.1"
     xmlns="http://www.w3.org/2000/svg" p-id="9681" width="16" height="16">
  <path
    d="M499.38 419l13 56.12 25.89-6L496 286.16h-47.7l-42.24 183 25.9 6 13-56.12z m-24.51-106.27l18.39 79.71H451l18.38-79.71z m143.41 79.71a53.14 53.14 0 0 0 0-106.28h-53.14v186h26.57v-79.72z m-26.57-79.71h26.57a26.57 26.57 0 1 1 0 53.14h-26.57zM684.7 445.58v26.57h79.71v-26.57h-26.57V312.73h26.57v-26.57H684.7v26.57h26.57v132.85H684.7z"
    fill="#26323C" p-id="9682"></path>
  <path
    d="M844.12 340.35v-1.05c0-80.57-65.56-146.13-146.13-146.13a146.53 146.53 0 0 0-26.65 2.73c-24.65-56.27-80.8-95.73-146.06-95.73-87.9 0-159.41 71.52-159.41 159.42a159.74 159.74 0 0 0 2.4 27.13c-60.84 5.51-108.68 56.75-108.68 119a119.89 119.89 0 0 0 26.33 74.86l20.71-16.64a92 92 0 0 1-20.47-58.22A93.07 93.07 0 0 1 414 319.48l10-24.63a118.09 118.09 0 0 0-28.31-7.43 132.36 132.36 0 0 1-3.25-27.83c0-73.25 59.59-132.85 132.84-132.85s132.85 59.6 132.85 132.85h26.57a159.07 159.07 0 0 0-4.86-38.35 119.4 119.4 0 0 1 137.1 130l-0.8 14.59h14.69a66.43 66.43 0 1 1 0 132.85H486v26.56h344.83a92.7 92.7 0 0 0 66.43-28v67.89A39.9 39.9 0 0 1 857.4 605H527v26.57h157.7v53.13H565.14v26.57h159.42a39.94 39.94 0 0 1 37.58 26.57H527v26.57h264v-13.29a66.5 66.5 0 0 0-66.42-66.42h-13.31v-53.14H857.4a66.5 66.5 0 0 0 66.43-66.42V432.29c0-46.59-34.45-85.29-79.71-91.94z"
    fill="#26323C" p-id="9683"></path>
  <path
    d="M844.12 551.85h26.57v26.57h-26.57v-26.57z m-53.14 0h26.57v26.57h-26.57v-26.57z m-53.14 0h26.57v26.57h-26.57v-26.57z"
    fill="#26323C" p-id="9684"></path>
  <path
    d="M578.42 735.08V634.33l-35-8.24a211.43 211.43 0 0 0-18.35-44.27L544 551.24 472.76 480l-30.58 18.93a210.93 210.93 0 0 0-44.27-18.36l-8.24-35H288.92l-8.23 35a210.4 210.4 0 0 0-44.27 18.36L205.84 480l-71.25 71.24 18.94 30.58a210.93 210.93 0 0 0-18.36 44.27l-35 8.24v100.75l35 8.23a210.4 210.4 0 0 0 18.36 44.27l-18.94 30.58 71.25 71.25 30.58-18.94a210.93 210.93 0 0 0 44.27 18.36l8.23 35h100.75l8.24-35a210.4 210.4 0 0 0 44.27-18.36l30.58 18.94L544 818.16l-18.93-30.58a210.93 210.93 0 0 0 18.36-44.27zM339.3 830.83A146.13 146.13 0 1 1 485.43 684.7 146.12 146.12 0 0 1 339.3 830.83z"
    fill="#26323C" p-id="9685"></path>
  <path
    d="M339.3 844.12c-87.91 0-159.42-71.51-159.42-159.42s71.51-159.42 159.42-159.42S498.72 596.8 498.72 684.7 427.2 844.12 339.3 844.12z m0-292.27c-73.25 0-132.85 59.6-132.85 132.85s59.6 132.85 132.85 132.85S472.15 758 472.15 684.7s-59.6-132.85-132.85-132.85z"
    fill="#26323C" p-id="9686"></path>
  <path
    d="M339.3 764.41A79.71 79.71 0 1 1 419 684.7a79.79 79.79 0 0 1-79.7 79.71z m0-132.85a53.14 53.14 0 1 0 53.14 53.14 53.2 53.2 0 0 0-53.14-53.14zM459.84 214.05L438 198.85a106.32 106.32 0 0 1 162.4-14.41l-18.79 18.78a79.73 79.73 0 0 0-112.73 0 81 81 0 0 0-9.04 10.83z m-14.26 45.54H419a106.29 106.29 0 0 1 4.41-30.36l25.46 7.58a80 80 0 0 0-3.29 22.78z"
    fill="#26323C" p-id="9687"></path>
</svg>
