<svg class="icon" viewBox="0 0 1126 1024" version="1.1"
     xmlns="http://www.w3.org/2000/svg" p-id="8146" width="16" height="16">
  <path
    d="M435.2 12.8a217.6 217.6 0 1 0 0 435.2 217.6 217.6 0 0 0 0-435.2zM294.4 230.4a140.8 140.8 0 1 1 281.6 0 140.8 140.8 0 0 1-281.6 0zM729.6 460.8a38.4 38.4 0 0 1 38.4-38.4h38.4v-76.8H768a38.4 38.4 0 0 1 0-76.8h38.4V230.4a38.4 38.4 0 0 1 76.8 0v38.4h76.8V230.4a38.4 38.4 0 0 1 76.8 0v38.4H1075.2a38.4 38.4 0 0 1 0 76.8h-38.4v76.8H1075.2a38.4 38.4 0 0 1 0 76.8h-38.4v38.4a38.4 38.4 0 0 1-76.8 0v-38.4h-76.8v38.4a38.4 38.4 0 0 1-76.8 0v-38.4H768a38.4 38.4 0 0 1-38.4-38.4z m153.6-115.2v76.8h76.8v-76.8h-76.8zM377.1904 576c-55.9104 0-100.2496 0-135.936 2.9184-36.5568 2.9696-67.4304 9.216-95.6416 23.552a243.2 243.2 0 0 0-106.2912 106.3424c-14.3872 28.16-20.6336 59.0848-23.6032 95.6416-2.9184 35.6864-2.9184 80.0256-2.9184 135.936V972.8c0 21.1968 17.2032 38.4 38.4 38.4h768a38.4 38.4 0 0 0 38.4-38.4v-32.4096c0-55.9104 0-100.2496-2.9184-135.936-2.9696-36.5568-9.216-67.4304-23.552-95.6416a243.2 243.2 0 0 0-106.3424-106.2912c-28.16-14.3872-59.0848-20.6336-95.6416-23.6032-35.6864-2.9184-80.0256-2.9184-135.936-2.9184H377.1904z m-269.4656 167.6288a166.4 166.4 0 0 1 72.704-72.704h509.5424a166.4 166.4 0 0 1 72.704 72.704c7.936 15.616 12.8512 35.328 15.4624 67.072 2.56 30.7712 2.6624 69.7344 2.6624 123.6992H89.6c0-53.9648 0.1536-92.928 2.6624-123.6992 2.56-31.744 7.5264-51.456 15.4624-67.072z m139.776-88.1664c32.256-2.6112 73.4208-2.6624 131.3792-2.6624h112.64c58.0096 0 99.1744 0 131.3792 2.6624 31.744 2.56 51.456 7.5264 67.072 15.4624H180.4288c15.5648-7.936 35.2256-12.8512 67.0208-15.4624z"
    fill="#595959" p-id="8147"></path>
</svg>
